# xmcd
#
# Track frame offsets:
#	150
#	15120
#	26310
#	41447
#	59410
#	76575
#	93687
#	111180
#	128772
#	144217
#	163407
#	185745
#	196115
#	210422
#	226267
#	239575
#	255567
#	273127
#	287217
#	307697
#	330227
#
# Disc length: 4598
#
# Revision: 2
# Processed by: cddbd v1.5.1PL0 Copyright (c) Steve Scherf et al.
# Submitted via: FreeRIP 2.51 
# Normalized: r0:TDELIM( - ),TSWAP
#
DISCID=0c11f415
DTITLE=Various Artist - Tennessee Music
DYEAR=1994
DGENRE=Country
TTITLE0=Brooks and Dunn - Boot Scootin' Boogie
TTITLE1=Alan Jackson - Chattahoochie
TTITLE2=Pam Tillis - Maybe It Was Memphis
TTITLE3=John Anderson - Seminole Wind
TTITLE4=Lisa Stewart - Crash And Burn
TTITLE5=Doug Supernaw - I Don't Call Him Daddy
TTITLE6=John Berry - Your Love Amazes Me
TTITLE7=Billy Dean - Once In A While
TTITLE8=Tanya Tucker - Hangin' In
TTITLE9=Vince Gill - When I Call Your Name
TTITLE10=Reba McEntire - Fancy
TTITLE11=George Strait - Heartland
TTITLE12=Sammy Kershaw - National Working Woman's Holiday
TTITLE13=Kathy Mattea - Walking Away A Winner
TTITLE14=John and Audrey Wiggins - Falling Out Of Love
TTITLE15=All The Kings Men - How Does It Feel
TTITLE16=Carol Smith - Get Out Of My House
TTITLE17=John Kilzer - Dimestore Angel
TTITLE18=Joe Diffie - John Deere Green
TTITLE19=Patty Loveless - How Can I Help You Say Goodbye
TTITLE20=Rick Trevino - She Can't Say I Didn't Cry
EXTD=
EXTT0=
EXTT1=
EXTT2=
EXTT3=
EXTT4=
EXTT5=
EXTT6=
EXTT7=
EXTT8=
EXTT9=
EXTT10=
EXTT11=
EXTT12=
EXTT13=
EXTT14=
EXTT15=
EXTT16=
EXTT17=
EXTT18=
EXTT19=
EXTT20=
PLAYORDER=
